HIERARCHY
ROOT Hips
{
	OFFSET 0.00000 0.00000 0.00000
	CHANNELS 6 Xposition Yposition Zposition Zrotation Yrotation Xrotation 
	JOINT LHipJoint
	{
		OFFSET 0 0 0
		CHANNELS 3 Zrotation Yrotation Xrotation
		JOINT LeftHip
		{
			OFFSET 1.30186 -1.90722 0.65024
			CHANNELS 3 Zrotation Yrotation Xrotation
			JOINT LeftKnee
			{
				OFFSET 2.56413 -7.04489 0.00000
				CHANNELS 3 Zrotation Yrotation Xrotation
				JOINT LeftAnkle
				{
					OFFSET 2.79321 -7.67428 0.00000
					CHANNELS 3 Zrotation Yrotation Xrotation
					JOINT LeftToe
					{
						OFFSET 0.15723 -0.43198 2.08537
						CHANNELS 3 Zrotation Yrotation Xrotation
						End Site
						{
							OFFSET 0.00000 -0.00000 1.07411
						}
					}
				}
			}
		}
	}
	JOINT RHipJoint
	{
		OFFSET 0 0 0
		CHANNELS 3 Zrotation Yrotation Xrotation
		JOINT RightHip
		{
			OFFSET -1.28627 -1.90723 0.65024
			CHANNELS 3 Zrotation Yrotation Xrotation
			JOINT RightKnee
			{
				OFFSET -2.56567 -7.04913 0.00000
				CHANNELS 3 Zrotation Yrotation Xrotation
				JOINT RightAnkle
				{
					OFFSET -2.75597 -7.57198 0.00000
					CHANNELS 3 Zrotation Yrotation Xrotation
					JOINT RightToe
					{
						OFFSET -0.17500 -0.48081 2.22901
						CHANNELS 3 Zrotation Yrotation Xrotation
						End Site
						{
							OFFSET -0.00000 -0.00000 1.14762
						}
					}
				}
			}
		}
	}
	JOINT lowerback
	{
		OFFSET 0 0 0
		CHANNELS 3 Zrotation Yrotation Xrotation
		JOINT Chest
		{
			OFFSET -0.04522 2.07467 -0.16566
			CHANNELS 3 Zrotation Yrotation Xrotation
			JOINT Chest2
			{
				OFFSET -0.01178 2.08825 -0.05393
				CHANNELS 3 Zrotation Yrotation Xrotation
				JOINT lowerneck
				{
					OFFSET 0 0 0
					CHANNELS 3 Zrotation Yrotation Xrotation
					JOINT Neck
					{
						OFFSET -0.05182 1.80489 0.16014
						CHANNELS 3 Zrotation Yrotation Xrotation
						JOINT Head
						{
							OFFSET 0.14739 1.78840 -0.33342
							CHANNELS 3 Zrotation Yrotation Xrotation
							End Site
							{
								OFFSET 0.04364 1.83899 -0.13460
							}
						}
					}
				}
				JOINT LeftCollar
				{
					OFFSET 0 0 0
					CHANNELS 3 Zrotation Yrotation Xrotation
					JOINT LeftShoulder
					{
						OFFSET 3.01264 1.29090 -0.06579
CHANNELS 3 Zrotation Xrotation Yrotation
						JOINT LeftElbow
						{
OFFSET 0 -5.556800 0.000000
CHANNELS 3 Zrotation Xrotation Yrotation
							JOINT LeftWrist
							{
OFFSET 0 -3.639790 -0.000000
CHANNELS 3 Zrotation Xrotation Yrotation
								JOINT lhand
								{
									OFFSET 0 0 0
CHANNELS 3 Zrotation Xrotation Yrotation
									JOINT LFingers
									{
OFFSET 0 -0.569420 -0.000000
CHANNELS 3 Zrotation Xrotation Yrotation
										End Site
										{
OFFSET 0 -0.459080 -0.000000
										}
									}
								}
								JOINT LThumb
								{
OFFSET 0 0.000000 0.000000
CHANNELS 3 Zrotation Xrotation Yrotation
									End Site
									{
OFFSET 0 -0.466090 0.466090
									}
								}
							}
						}
					}
				}
				JOINT RightCollar
				{
					OFFSET 0 0 0
					CHANNELS 3 Zrotation Yrotation Xrotation
					JOINT RightShoulder
					{
						OFFSET -3.15796 1.37283 -0.36748
CHANNELS 3 Zrotation Xrotation Yrotation
						JOINT RightElbow
						{
OFFSET 0 -5.343390 0.000000
CHANNELS 3 Zrotation Xrotation Yrotation
							JOINT RightWrist
							{
OFFSET 0 -3.651010 -0.000000
CHANNELS 3 Zrotation Xrotation Yrotation
								JOINT rhand
								{
									OFFSET 0 0 0
CHANNELS 3 Zrotation Xrotation Yrotation
									JOINT RFingers
									{
OFFSET 0 -0.694250 -0.000000
CHANNELS 3 Zrotation Xrotation Yrotation
										End Site
										{
OFFSET 0 -0.559720 -0.000000
										}
									}
								}
								JOINT RThumb
								{
OFFSET 0 0.000000 0.000000
CHANNELS 3 Zrotation Xrotation Yrotation
									End Site
									{
OFFSET 0 -0.568270 0.568270
									}
								}
							}
						}
					}
				}
			}
		}
	}
}
MOTION
Frames: 9
Frame Time: 0.008333333333333333
18.895301 18.242449 3.789146 -7.038077 -8.013356 2.544693 0.000000 0.000000 0.000000 -4.717541 -18.049737 -29.230085 1.430226 7.560068 21.386490 0.366020 3.058971 -12.964164 0.880144 -5.976636 -16.717978 0.000000 0.000000 0.000000 30.587541 2.528523 25.939642 -0.029717 -1.088637 2.992979 0.165015 7.256090 1.853320 -0.032816 1.168505 -3.212469 7.649852 3.631746 -0.478471 1.606112 4.781766 0.032847 -2.532828 2.410964 0.788697 -2.431724 -3.762794 -9.969918 0.784595 -4.828771 12.985215 0.266281 -2.414939 5.637524 0.000000 0.000000 0.000000 -3.829663 15.193085 8.698187 6.514966 -11.117479 0.635904 24.741667 24.263032 -14.175681 0.000000 0.000000 0.000000 -7.125000 0.000000 0.000000 -2.564661 45.503305 0.040986 0.000000 0.000000 0.000000 -3.798377 -39.798193 17.507966 -19.259366 -29.739324 -5.159108 -18.873330 -17.881557 -31.727940 0.000000 0.000000 0.000000 7.125000 0.000000 0.000000 7.223268 -2.947501 7.644961
18.899622 18.234435 3.881693 -7.075266 -8.167244 2.616653 0.000000 0.000000 0.000000 -4.840484 -17.762490 -29.252614 1.481393 7.689485 21.775210 0.345832 3.166003 -12.728253 0.913592 -6.089341 -17.044259 0.000000 0.000000 0.000000 30.556700 2.597588 26.427158 -0.020909 -0.932566 2.563285 0.164921 7.187017 2.416644 -0.030324 1.124828 -3.092237 7.647516 3.711945 -0.595638 1.591678 4.880191 -0.023179 -2.537443 2.459312 0.807371 -2.358827 -3.769694 -9.964907 0.756335 -4.846277 13.031302 0.243939 -2.421987 5.648800 0.000000 0.000000 0.000000 -3.861103 15.585048 10.273360 6.298384 -10.758803 0.593916 24.303194 25.761461 -14.744318 0.000000 0.000000 0.000000 -7.125000 0.000000 0.000000 -3.065124 46.062379 0.084951 0.000000 0.000000 0.000000 -4.007891 -39.941617 17.655226 -19.391343 -29.901875 -5.224634 -18.794419 -18.156518 -31.776040 0.000000 0.000000 0.000000 7.125000 0.000000 0.000000 7.274033 -2.980821 7.703572
18.902336 18.228891 3.977422 -7.215609 -8.222640 2.553955 0.000000 0.000000 0.000000 -4.884640 -17.516783 -29.189189 1.538089 7.826809 22.190583 0.300720 3.576139 -12.294988 0.870354 -5.944868 -16.625598 0.000000 0.000000 0.000000 30.677967 2.561613 26.819364 -0.019915 -0.910010 2.501276 0.163468 7.167328 2.808773 -0.029406 1.107281 -3.044029 7.761061 3.743409 -0.629663 1.607696 4.917619 -0.024632 -2.579306 2.479154 0.836885 -2.312644 -3.775391 -9.942046 0.773691 -4.864895 13.066703 0.240498 -2.427645 5.655567 0.000000 0.000000 0.000000 -3.898072 15.967314 12.045300 6.129673 -10.477771 0.563294 23.644791 27.400168 -15.324196 0.000000 0.000000 0.000000 -7.125000 0.000000 0.000000 -3.797006 46.593131 0.165884 0.000000 0.000000 0.000000 -4.178551 -40.036428 17.817743 -19.559671 -30.107325 -5.309123 -18.777866 -18.500629 -31.920933 0.000000 0.000000 0.000000 7.125000 0.000000 0.000000 7.301788 -3.123535 7.750786
18.905050 18.223348 4.073151 -7.355953 -8.278035 2.491258 0.000000 0.000000 0.000000 -4.928796 -17.271077 -29.125765 1.594785 7.964132 22.605956 0.255609 3.986274 -11.861723 0.827115 -5.800396 -16.206937 0.000000 0.000000 0.000000 30.799234 2.525638 27.211569 -0.018921 -0.887454 2.439266 0.162015 7.147640 3.200902 -0.028489 1.089733 -2.995820 7.874605 3.774873 -0.663688 1.623715 4.955046 -0.026085 -2.621168 2.498995 0.866398 -2.266462 -3.781087 -9.919184 0.791048 -4.883514 13.102105 0.237057 -2.433303 5.662334 0.000000 0.000000 0.000000 -3.935041 16.349580 13.817240 5.960963 -10.196740 0.532671 22.986387 29.038875 -15.904075 0.000000 0.000000 0.000000 -7.125000 0.000000 0.000000 -4.528889 47.123883 0.246818 0.000000 0.000000 0.000000 -4.349212 -40.131240 17.980261 -19.727999 -30.312775 -5.393612 -18.761312 -18.844741 -32.065826 0.000000 0.000000 0.000000 7.125000 0.000000 0.000000 7.329543 -3.266249 7.798001
18.908602 18.222454 4.168065 -7.297151 -8.291517 2.436493 0.000000 0.000000 0.000000 -5.159295 -17.113341 -29.129994 1.653927 8.102888 23.028072 0.208734 4.518648 -11.500209 0.804238 -5.723334 -15.983808 0.000000 0.000000 0.000000 30.658616 2.388493 27.811757 -0.014423 -0.684440 1.881254 0.152673 7.062502 3.834994 -0.039140 1.241251 -3.413446 7.797774 3.782669 -0.687642 1.573535 4.966316 -0.064140 -2.630195 2.502882 0.839520 -2.197009 -3.782222 -9.911748 0.801199 -4.898981 13.190615 0.226984 -2.436626 5.687523 0.000000 0.000000 0.000000 -3.943935 16.753441 15.781958 5.780947 -9.895853 0.501476 22.431975 30.831663 -16.206445 0.000000 0.000000 0.000000 -7.125000 0.000000 0.000000 -5.112684 47.369569 0.300228 0.000000 0.000000 0.000000 -4.416454 -40.176711 18.100644 -19.893705 -30.513487 -5.477550 -18.686184 -19.047245 -32.215766 0.000000 0.000000 0.000000 7.125000 0.000000 0.000000 7.390905 -3.402639 7.881157
18.912769 18.224978 4.262379 -7.092007 -8.274199 2.387558 0.000000 0.000000 0.000000 -5.526727 -17.020250 -29.183937 1.714866 8.242697 23.455144 0.160563 5.140847 -11.191423 0.796325 -5.695808 -15.904365 0.000000 0.000000 0.000000 30.325553 2.177002 28.564781 -0.007351 -0.348815 0.958755 0.137534 6.929269 4.646893 -0.058294 1.517007 -4.173390 7.581046 3.773073 -0.704196 1.474710 4.958364 -0.129094 -2.615094 2.495045 0.771203 -2.110455 -3.780005 -9.915647 0.806054 -4.912132 13.318151 0.212036 -2.438231 5.726251 0.000000 0.000000 0.000000 -3.932198 17.173173 17.888337 5.592624 -9.580376 0.469859 21.953980 32.737677 -16.304888 0.000000 0.000000 0.000000 -7.125000 0.000000 0.000000 -5.587659 47.405773 0.333412 0.000000 0.000000 0.000000 -4.407699 -40.185924 18.190065 -20.057484 -30.710718 -5.561084 -18.568014 -19.145688 -32.369414 0.000000 0.000000 0.000000 7.125000 0.000000 0.000000 7.476961 -3.534380 7.990726
18.916936 18.227501 4.356693 -6.886862 -8.256881 2.338623 0.000000 0.000000 0.000000 -5.894159 -16.927159 -29.237880 1.775805 8.382505 23.882216 0.112393 5.763047 -10.882636 0.788411 -5.668282 -15.824922 0.000000 0.000000 0.000000 29.992490 1.965512 29.317805 -0.000278 -0.013190 0.036255 0.122395 6.796036 5.458791 -0.077447 1.792762 -4.933333 7.364318 3.763477 -0.720749 1.375884 4.950413 -0.194047 -2.599993 2.487208 0.702885 -2.023902 -3.777787 -9.919547 0.810909 -4.925283 13.445688 0.197087 -2.439837 5.764978 0.000000 0.000000 0.000000 -3.920461 17.592904 19.994717 5.404301 -9.264899 0.438243 21.475986 34.643691 -16.403331 0.000000 0.000000 0.000000 -7.125000 0.000000 0.000000 -6.062633 47.441977 0.366596 0.000000 0.000000 0.000000 -4.398944 -40.195138 18.279486 -20.221263 -30.907949 -5.644617 -18.449844 -19.244131 -32.523061 0.000000 0.000000 0.000000 7.125000 0.000000 0.000000 7.563018 -3.666122 8.100294
18.920846 18.228885 4.443736 -6.705297 -8.170183 2.357415 0.000000 0.000000 0.000000 -6.166981 -16.945537 -29.372220 1.831455 8.504170 24.257280 0.089198 6.091901 -10.788597 0.823689 -5.788218 -16.171817 0.000000 0.000000 0.000000 29.758372 1.880365 29.504595 0.000000 0.000000 0.000000 0.116548 6.838730 5.877224 -0.141188 2.322014 -6.401096 7.148728 3.734930 -0.762792 1.305559 4.914254 -0.255512 -2.554886 2.466075 0.647679 -1.984396 -3.791914 -9.954481 0.792993 -4.948571 13.528894 0.181552 -2.450147 5.795919 0.000000 0.000000 0.000000 -3.929109 17.867450 20.001179 5.171868 -8.873285 0.402843 20.971694 34.534557 -17.098198 0.000000 0.000000 0.000000 -7.125000 0.000000 0.000000 -6.723487 48.093153 0.533175 0.000000 0.000000 0.000000 -4.495598 -40.199246 18.492239 -20.431026 -31.156782 -5.753346 -18.350038 -19.384811 -32.441651 0.000000 0.000000 0.000000 7.125000 0.000000 0.000000 7.608784 -3.565377 8.137398
18.924746 18.230224 4.530480 -6.524697 -8.080648 2.378976 0.000000 0.000000 0.000000 -6.435931 -16.968475 -29.509850 1.886889 8.625093 24.630218 0.067024 6.408754 -10.703343 0.860735 -5.914187 -16.536152 0.000000 0.000000 0.000000 29.528301 1.800387 29.668221 0.000000 0.000000 0.000000 0.111081 6.888621 6.279561 -0.206753 2.861636 -7.897816 6.933185 3.705607 -0.805878 1.236401 4.876941 -0.316833 -2.508551 2.444399 0.593010 -1.946816 -3.806709 -9.990685 0.774146 -4.972274 13.610286 0.165992 -2.460813 5.826542 0.000000 0.000000 0.000000 -3.938590 18.136057 19.921737 4.937631 -8.478556 0.367289 20.466327 34.342984 -17.817465 0.000000 0.000000 0.000000 -7.125000 0.000000 0.000000 -7.391945 48.769487 0.705212 0.000000 0.000000 0.000000 -4.596565 -40.203146 18.710037 -20.642669 -31.407726 -5.863105 -18.250983 -19.527220 -32.350624 0.000000 0.000000 0.000000 7.125000 0.000000 0.000000 7.652902 -3.455120 8.171538
